<svg version="1.1" class="highcharts-root" style="font-family:&quot;Lucida Grande&quot;, &quot;Lucida Sans Unicode&quot;, Arial, Helvetica, sans-serif;font-size:12px;" xmlns="http://www.w3.org/2000/svg" width="676" height="450" viewBox="0 0 676 450"><desc>Created with Highcharts 5.0.14</desc><defs><clipPath id="highcharts-17ujicq-1"><rect x="0" y="0" width="600" height="333" fill="none"></rect></clipPath></defs><rect fill="#ffffff" class="highcharts-background" x="0" y="0" width="676" height="450" rx="0" ry="0"></rect><rect fill="none" class="highcharts-plot-background" x="71" y="20" width="600" height="333"></rect><g class="highcharts-plot-bands-0"><path fill="#fafafa" class="highcharts-plot-band " d="M 130.5 20 L 130.5 353 190.5 353 190.5 20" visibility="visible"></path><path fill="#fafafa" class="highcharts-plot-band " d="M 250.5 20 L 250.5 353 310.5 353 310.5 20" visibility="visible"></path><path fill="#fafafa" class="highcharts-plot-band " d="M 370.5 20 L 370.5 353 430.5 353 430.5 20" visibility="visible"></path><path fill="#fafafa" class="highcharts-plot-band " d="M 490.5 20 L 490.5 353 550.5 353 550.5 20" visibility="visible"></path><path fill="#fafafa" class="highcharts-plot-band " d="M 610.5 20 L 610.5 353 670.5 353 670.5 20" visibility="visible"></path></g><g class="highcharts-grid highcharts-xaxis-grid "><path fill="none" stroke-dasharray="none,none" class="highcharts-grid-line" d="M 130.5 20 L 130.5 353" opacity="1"></path><path fill="none" stroke-dasharray="none,none" class="highcharts-grid-line" d="M 190.5 20 L 190.5 353" opacity="1"></path><path fill="none" stroke-dasharray="none,none" class="highcharts-grid-line" d="M 250.5 20 L 250.5 353" opacity="1"></path><path fill="none" stroke-dasharray="none,none" class="highcharts-grid-line" d="M 310.5 20 L 310.5 353" opacity="1"></path><path fill="none" stroke-dasharray="none,none" class="highcharts-grid-line" d="M 370.5 20 L 370.5 353" opacity="1"></path><path fill="none" stroke-dasharray="none,none" class="highcharts-grid-line" d="M 430.5 20 L 430.5 353" opacity="1"></path><path fill="none" stroke-dasharray="none,none" class="highcharts-grid-line" d="M 490.5 20 L 490.5 353" opacity="1"></path><path fill="none" stroke-dasharray="none,none" class="highcharts-grid-line" d="M 550.5 20 L 550.5 353" opacity="1"></path><path fill="none" stroke-dasharray="none,none" class="highcharts-grid-line" d="M 610.5 20 L 610.5 353" opacity="1"></path><path fill="none" stroke-dasharray="none,none" class="highcharts-grid-line" d="M 670.5 20 L 670.5 353" opacity="1"></path><path fill="none" stroke-dasharray="none,none" class="highcharts-grid-line" d="M 70.5 20 L 70.5 353" opacity="1"></path></g><g class="highcharts-grid highcharts-yaxis-grid "><path fill="none" stroke="#cdcdcd" stroke-width="1" stroke-dasharray="1,1" class="highcharts-grid-line" d="M 71 353.5 L 671 353.5" opacity="1"></path><path fill="none" stroke="#cdcdcd" stroke-width="1" stroke-dasharray="1,1" class="highcharts-grid-line" d="M 71 305.5 L 671 305.5" opacity="1"></path><path fill="none" stroke="#cdcdcd" stroke-width="1" stroke-dasharray="1,1" class="highcharts-grid-line" d="M 71 258.5 L 671 258.5" opacity="1"></path><path fill="none" stroke="#cdcdcd" stroke-width="1" stroke-dasharray="1,1" class="highcharts-grid-line" d="M 71 210.5 L 671 210.5" opacity="1"></path><path fill="none" stroke="#cdcdcd" stroke-width="1" stroke-dasharray="1,1" class="highcharts-grid-line" d="M 71 163.5 L 671 163.5" opacity="1"></path><path fill="none" stroke="#cdcdcd" stroke-width="1" stroke-dasharray="1,1" class="highcharts-grid-line" d="M 71 115.5 L 671 115.5" opacity="1"></path><path fill="none" stroke="#cdcdcd" stroke-width="1" stroke-dasharray="1,1" class="highcharts-grid-line" d="M 71 68.5 L 671 68.5" opacity="1"></path><path fill="none" stroke="#cdcdcd" stroke-width="1" stroke-dasharray="1,1" class="highcharts-grid-line" d="M 71 19.5 L 671 19.5" opacity="1"></path></g><rect fill="none" class="highcharts-plot-border" x="71" y="20" width="600" height="333"></rect><g class="highcharts-axis highcharts-xaxis "><path fill="none" class="highcharts-axis-line" d="M 71 353 L 671 353"></path></g><g class="highcharts-axis highcharts-yaxis "><text x="24" text-anchor="middle" transform="translate(0,0) rotate(270 24 186.5)" class="highcharts-axis-title" style="color:#808080;font-size:10px;font-weight:normal;fill:#808080;" y="186.5"><tspan>Supply in million carats</tspan></text><path fill="none" class="highcharts-axis-line" d="M 71 20 L 71 353"></path></g><path fill="none" class="highcharts-crosshair highcharts-crosshair-category undefined" stroke="#C0C0C0" stroke-width="1" stroke-dasharray="1,1" visibility="hidden" d="M 580.5 20 L 580.5 353"></path><g class="highcharts-series-group"><g class="highcharts-series highcharts-series-0 highcharts-line-series highcharts-color-0 " transform="translate(71,20) scale(1 1)" clip-path="url(#highcharts-17ujicq-1)"><path fill="none" d="M 30 78.01714285714286 L 90 53.28000000000003 L 150 72.30857142857144 L 210 117.97714285714287 L 270 215.02285714285716 L 330 251.17714285714285 L 390 260.69142857142856 L 450 275.9142857142857 L 510 306.36 L 570 306.36" class="highcharts-graph" stroke="#2876dd" stroke-width="4" stroke-linejoin="round" stroke-linecap="round"></path><path fill="none" d="M 20 78.01714285714286 L 30 78.01714285714286 L 90 53.28000000000003 L 150 72.30857142857144 L 210 117.97714285714287 L 270 215.02285714285716 L 330 251.17714285714285 L 390 260.69142857142856 L 450 275.9142857142857 L 510 306.36 L 570 306.36 L 580 306.36" stroke-linejoin="round" visibility="visible" stroke="rgba(192,192,192,0.0001)" stroke-width="24" class="highcharts-tracker" style="cursor:pointer;"></path></g><g class="highcharts-markers highcharts-series-0 highcharts-line-series highcharts-color-0 highcharts-tracker" transform="translate(71,20) scale(1 1)" style="cursor:pointer;"><path fill="#2876dd" d="M 510 306.36 A 0 0 0 1 1 510 306.36 Z" class="highcharts-halo highcharts-color-0" fill-opacity="0.25"></path><path fill="#2876dd" d="M 34 78.01714285714286 A 4 4 0 1 1 33.99999800000017 78.01314285780953 Z" class="highcharts-point highcharts-color-0"></path><path fill="#2876dd" d="M 94 53.28000000000003 A 4 4 0 1 1 93.99999800000016 53.27600000066669 Z" class="highcharts-point highcharts-color-0"></path><path fill="#2876dd" d="M 154 72.30857142857144 A 4 4 0 1 1 153.99999800000018 72.30457142923811 Z" class="highcharts-point highcharts-color-0"></path><path fill="#2876dd" d="M 214 117.97714285714287 A 4 4 0 1 1 213.99999800000018 117.97314285780953 Z" class="highcharts-point highcharts-color-0"></path><path fill="#2876dd" d="M 274 215.02285714285716 A 4 4 0 1 1 273.9999980000002 215.01885714352383 Z" class="highcharts-point highcharts-color-0"></path><path fill="#2876dd" d="M 334 251.17714285714285 A 4 4 0 1 1 333.9999980000002 251.17314285780952 Z" class="highcharts-point highcharts-color-0"></path><path fill="#2876dd" d="M 394 260.69142857142856 A 4 4 0 1 1 393.9999980000002 260.6874285720952 Z" class="highcharts-point highcharts-color-0"></path><path fill="#2876dd" d="M 454 275.9142857142857 A 4 4 0 1 1 453.9999980000002 275.91028571495235 Z" class="highcharts-point highcharts-color-0 " stroke-width="0.0002467198171342"></path><path fill="#2876dd" d="M 514 306.36 A 4 4 0 1 1 513.9999980000001 306.35600000066665 Z" class="highcharts-point highcharts-color-0 " stroke-width="0.13337232688872014"></path><path fill="#2876dd" d="M 574 306.36 A 4 4 0 1 1 573.9999980000001 306.35600000066665 Z" class="highcharts-point highcharts-color-0 " stroke-width="0.0005551470196284436"></path></g><g class="highcharts-series highcharts-series-1 highcharts-line-series highcharts-color-1 " transform="translate(71,20) scale(1 1)" clip-path="url(#highcharts-17ujicq-1)"><path fill="none" d="M 30 78.01714285714286 L 90 53.28000000000003 L 150 72.30857142857144 L 210 117.97714285714287 L 270 173.16 L 330 201.70285714285714 L 390 211.21714285714285 L 450 226.44 L 510 256.8857142857143 L 570 256.8857142857143" class="highcharts-graph" stroke="#0f283e" stroke-width="4" stroke-linejoin="round" stroke-linecap="round"></path><path fill="none" d="M 20 78.01714285714286 L 30 78.01714285714286 L 90 53.28000000000003 L 150 72.30857142857144 L 210 117.97714285714287 L 270 173.16 L 330 201.70285714285714 L 390 211.21714285714285 L 450 226.44 L 510 256.8857142857143 L 570 256.8857142857143 L 580 256.8857142857143" stroke-linejoin="round" visibility="visible" stroke="rgba(192,192,192,0.0001)" stroke-width="24" class="highcharts-tracker" style="cursor:pointer;"></path></g><g class="highcharts-markers highcharts-series-1 highcharts-line-series highcharts-color-1 highcharts-tracker " transform="translate(71,20) scale(1 1)" style="cursor:pointer;"><path fill="#0f283e" d="M 510 256.8857142857143 A 0 0 0 1 1 510 256.8857142857143 Z" class="highcharts-halo highcharts-color-1" fill-opacity="0.25"></path><path fill="#0f283e" d="M 34 78.01714285714286 A 4 4 0 1 1 33.99999800000017 78.01314285780953 Z" class="highcharts-point highcharts-color-1"></path><path fill="#0f283e" d="M 94 53.28000000000003 A 4 4 0 1 1 93.99999800000016 53.27600000066669 Z" class="highcharts-point highcharts-color-1"></path><path fill="#0f283e" d="M 154 72.30857142857144 A 4 4 0 1 1 153.99999800000018 72.30457142923811 Z" class="highcharts-point highcharts-color-1"></path><path fill="#0f283e" d="M 214 117.97714285714287 A 4 4 0 1 1 213.99999800000018 117.97314285780953 Z" class="highcharts-point highcharts-color-1"></path><path fill="#0f283e" d="M 274 173.16 A 4 4 0 1 1 273.9999980000002 173.15600000066667 Z" class="highcharts-point highcharts-color-1"></path><path fill="#0f283e" d="M 334 201.70285714285714 A 4 4 0 1 1 333.9999980000002 201.6988571435238 Z" class="highcharts-point highcharts-color-1"></path><path fill="#0f283e" d="M 394 211.21714285714285 A 4 4 0 1 1 393.9999980000002 211.21314285780952 Z" class="highcharts-point highcharts-color-1"></path><path fill="#0f283e" d="M 454 226.44 A 4 4 0 1 1 453.9999980000002 226.43600000066667 Z" class="highcharts-point highcharts-color-1 " stroke-width="0.0002467198171342"></path><path fill="#0f283e" d="M 514 256.8857142857143 A 4 4 0 1 1 513.9999980000001 256.88171428638094 Z" class="highcharts-point highcharts-color-1 " stroke-width="0.13124344132091315"></path><path fill="#0f283e" d="M 574 256.8857142857143 A 4 4 0 1 1 573.9999980000001 256.88171428638094 Z" class="highcharts-point highcharts-color-1 " stroke-width="0.0005551470196284436"></path></g></g><g class="highcharts-data-labels highcharts-series-0 highcharts-line-series highcharts-color-0 " transform="translate(71,20) scale(1 1)" opacity="1" visibility="visible"><g class="highcharts-label highcharts-data-label highcharts-data-label-color-0 " transform="translate(17,46)" style="text-shadow:null;cursor:pointer;" opacity="0" visibility="hidden"><text x="5" style="font-size:11px;font-weight:bold;color:#4f4f4f;fill:#4f4f4f;" y="16"><tspan x="5" y="16" class="highcharts-text-outline" fill="#FFFFFF" stroke="#FFFFFF" stroke-width="2px" stroke-linejoin="round">134</tspan><tspan x="5" y="16">134</tspan></text></g><g class="highcharts-label highcharts-data-label highcharts-data-label-color-0 " transform="translate(77,21)" style="text-shadow:null;cursor:pointer;"><text x="5" style="font-size:11px;font-weight:bold;color:#4f4f4f;fill:#4f4f4f;" y="16"><tspan x="5" y="16" class="highcharts-text-outline" fill="#FFFFFF" stroke="#FFFFFF" stroke-width="2px" stroke-linejoin="round">147</tspan><tspan x="5" y="16">147</tspan></text></g><g class="highcharts-label highcharts-data-label highcharts-data-label-color-0 " transform="translate(137,40)" style="text-shadow:null;cursor:pointer;"><text x="5" style="font-size:11px;font-weight:bold;color:#4f4f4f;fill:#4f4f4f;" y="16"><tspan x="5" y="16" class="highcharts-text-outline" fill="#FFFFFF" stroke="#FFFFFF" stroke-width="2px" stroke-linejoin="round">137</tspan><tspan x="5" y="16">137</tspan></text></g><g class="highcharts-label highcharts-data-label highcharts-data-label-color-0 " transform="translate(197,86)" style="text-shadow:null;cursor:pointer;"><text x="5" style="font-size:11px;font-weight:bold;color:#4f4f4f;fill:#4f4f4f;" y="16"><tspan x="5" y="16" class="highcharts-text-outline" fill="#FFFFFF" stroke="#FFFFFF" stroke-width="2px" stroke-linejoin="round">113</tspan><tspan x="5" y="16">113</tspan></text></g><g class="highcharts-label highcharts-data-label highcharts-data-label-color-0 " transform="translate(260,183)" style="text-shadow:null;cursor:pointer;"><text x="5" style="font-size:11px;font-weight:bold;color:#4f4f4f;fill:#4f4f4f;" y="16"><tspan x="5" y="16" class="highcharts-text-outline" fill="#FFFFFF" stroke="#FFFFFF" stroke-width="2px" stroke-linejoin="round">62</tspan><tspan x="5" y="16">62</tspan></text></g><g class="highcharts-label highcharts-data-label highcharts-data-label-color-0 " transform="translate(320,219)" style="text-shadow:null;cursor:pointer;"><text x="5" style="font-size:11px;font-weight:bold;color:#4f4f4f;fill:#4f4f4f;" y="16"><tspan x="5" y="16" class="highcharts-text-outline" fill="#FFFFFF" stroke="#FFFFFF" stroke-width="2px" stroke-linejoin="round">43</tspan><tspan x="5" y="16">43</tspan></text></g><g class="highcharts-label highcharts-data-label highcharts-data-label-color-0 " transform="translate(380,229)" style="text-shadow:null;cursor:pointer;"><text x="5" style="font-size:11px;font-weight:bold;color:#4f4f4f;fill:#4f4f4f;" y="16"><tspan x="5" y="16" class="highcharts-text-outline" fill="#FFFFFF" stroke="#FFFFFF" stroke-width="2px" stroke-linejoin="round">38</tspan><tspan x="5" y="16">38</tspan></text></g><g class="highcharts-label highcharts-data-label highcharts-data-label-color-0 " transform="translate(440,244)" style="text-shadow:null;cursor:pointer;"><text x="5" style="font-size:11px;font-weight:bold;color:#4f4f4f;fill:#4f4f4f;" y="16"><tspan x="5" y="16" class="highcharts-text-outline" fill="#FFFFFF" stroke="#FFFFFF" stroke-width="2px" stroke-linejoin="round">30</tspan><tspan x="5" y="16">30</tspan></text></g><g class="highcharts-label highcharts-data-label highcharts-data-label-color-0 " transform="translate(500,274)" style="text-shadow:null;cursor:pointer;"><text x="5" style="font-size:11px;font-weight:bold;color:#4f4f4f;fill:#4f4f4f;" y="16"><tspan x="5" y="16" class="highcharts-text-outline" fill="#FFFFFF" stroke="#FFFFFF" stroke-width="2px" stroke-linejoin="round">14</tspan><tspan x="5" y="16">14</tspan></text></g><g class="highcharts-label highcharts-data-label highcharts-data-label-color-0 " transform="translate(560,274)" style="text-shadow:null;cursor:pointer;"><text x="5" style="font-size:11px;font-weight:bold;color:#4f4f4f;fill:#4f4f4f;" y="16"><tspan x="5" y="16" class="highcharts-text-outline" fill="#FFFFFF" stroke="#FFFFFF" stroke-width="2px" stroke-linejoin="round">14</tspan><tspan x="5" y="16">14</tspan></text></g></g><g class="highcharts-data-labels highcharts-series-1 highcharts-line-series highcharts-color-1 " transform="translate(71,20) scale(1 1)" opacity="1" visibility="visible"><g class="highcharts-label highcharts-data-label highcharts-data-label-color-1 " transform="translate(17,46)" style="text-shadow:null;cursor:pointer;"><text x="5" style="font-size:11px;font-weight:bold;color:#4f4f4f;fill:#4f4f4f;" y="16"><tspan x="5" y="16" class="highcharts-text-outline" fill="#FFFFFF" stroke="#FFFFFF" stroke-width="2px" stroke-linejoin="round">134</tspan><tspan x="5" y="16">134</tspan></text></g><g class="highcharts-label highcharts-data-label highcharts-data-label-color-1 " transform="translate(77,21)" style="text-shadow:null;cursor:pointer;" opacity="0" visibility="hidden"><text x="5" style="font-size:11px;font-weight:bold;color:#4f4f4f;fill:#4f4f4f;" y="16"><tspan x="5" y="16" class="highcharts-text-outline" fill="#FFFFFF" stroke="#FFFFFF" stroke-width="2px" stroke-linejoin="round">147</tspan><tspan x="5" y="16">147</tspan></text></g><g class="highcharts-label highcharts-data-label highcharts-data-label-color-1 " transform="translate(137,40)" style="text-shadow:null;cursor:pointer;" opacity="0" visibility="hidden"><text x="5" style="font-size:11px;font-weight:bold;color:#4f4f4f;fill:#4f4f4f;" y="16"><tspan x="5" y="16" class="highcharts-text-outline" fill="#FFFFFF" stroke="#FFFFFF" stroke-width="2px" stroke-linejoin="round">137</tspan><tspan x="5" y="16">137</tspan></text></g><g class="highcharts-label highcharts-data-label highcharts-data-label-color-1 " transform="translate(197,86)" style="text-shadow:null;cursor:pointer;" opacity="0" visibility="hidden"><text x="5" style="font-size:11px;font-weight:bold;color:#4f4f4f;fill:#4f4f4f;" y="16"><tspan x="5" y="16" class="highcharts-text-outline" fill="#FFFFFF" stroke="#FFFFFF" stroke-width="2px" stroke-linejoin="round">113</tspan><tspan x="5" y="16">113</tspan></text></g><g class="highcharts-label highcharts-data-label highcharts-data-label-color-1 " transform="translate(260,141)" style="text-shadow:null;cursor:pointer;"><text x="5" style="font-size:11px;font-weight:bold;color:#4f4f4f;fill:#4f4f4f;" y="16"><tspan x="5" y="16" class="highcharts-text-outline" fill="#FFFFFF" stroke="#FFFFFF" stroke-width="2px" stroke-linejoin="round">84</tspan><tspan x="5" y="16">84</tspan></text></g><g class="highcharts-label highcharts-data-label highcharts-data-label-color-1 " transform="translate(320,170)" style="text-shadow:null;cursor:pointer;"><text x="5" style="font-size:11px;font-weight:bold;color:#4f4f4f;fill:#4f4f4f;" y="16"><tspan x="5" y="16" class="highcharts-text-outline" fill="#FFFFFF" stroke="#FFFFFF" stroke-width="2px" stroke-linejoin="round">69</tspan><tspan x="5" y="16">69</tspan></text></g><g class="highcharts-label highcharts-data-label highcharts-data-label-color-1 " transform="translate(380,179)" style="text-shadow:null;cursor:pointer;"><text x="5" style="font-size:11px;font-weight:bold;color:#4f4f4f;fill:#4f4f4f;" y="16"><tspan x="5" y="16" class="highcharts-text-outline" fill="#FFFFFF" stroke="#FFFFFF" stroke-width="2px" stroke-linejoin="round">64</tspan><tspan x="5" y="16">64</tspan></text></g><g class="highcharts-label highcharts-data-label highcharts-data-label-color-1 " transform="translate(440,194)" style="text-shadow:null;cursor:pointer;"><text x="5" style="font-size:11px;font-weight:bold;color:#4f4f4f;fill:#4f4f4f;" y="16"><tspan x="5" y="16" class="highcharts-text-outline" fill="#FFFFFF" stroke="#FFFFFF" stroke-width="2px" stroke-linejoin="round">56</tspan><tspan x="5" y="16">56</tspan></text></g><g class="highcharts-label highcharts-data-label highcharts-data-label-color-1 " transform="translate(500,225)" style="text-shadow:null;cursor:pointer;"><text x="5" style="font-size:11px;font-weight:bold;color:#4f4f4f;fill:#4f4f4f;" y="16"><tspan x="5" y="16" class="highcharts-text-outline" fill="#FFFFFF" stroke="#FFFFFF" stroke-width="2px" stroke-linejoin="round">40</tspan><tspan x="5" y="16">40</tspan></text></g><g class="highcharts-label highcharts-data-label highcharts-data-label-color-1 " transform="translate(560,225)" style="text-shadow:null;cursor:pointer;"><text x="5" style="font-size:11px;font-weight:bold;color:#4f4f4f;fill:#4f4f4f;" y="16"><tspan x="5" y="16" class="highcharts-text-outline" fill="#FFFFFF" stroke="#FFFFFF" stroke-width="2px" stroke-linejoin="round">40</tspan><tspan x="5" y="16">40</tspan></text></g></g><g class="highcharts-plot-lines-6"><path fill="none" stroke="#121212" stroke-width="1" d="M 71 353.5 L 671 353.5" visibility="visible"></path></g><g class="highcharts-legend" transform="translate(136,391)"><rect fill="none" class="highcharts-legend-box" rx="0" ry="0" x="0" y="0" width="409" height="34" visibility="visible"></rect><g><g><g class="highcharts-legend-item highcharts-line-series highcharts-color-0 highcharts-series-0" transform="translate(8,3)"><path fill="none" d="M 0 16 L 16 16" class="highcharts-graph" stroke="#2876dd" stroke-width="4"></path><path fill="#2876dd" d="M 12 16 A 4 4 0 1 1 11.999998000000167 15.996000000666664 Z" class="highcharts-point"></path><text x="21" style="color:#333333;font-size:12px;font-weight:bold;cursor:pointer;fill:#333333;" text-anchor="start" y="20"><tspan>Base production scenario</tspan></text></g><g class="highcharts-legend-item highcharts-line-series highcharts-color-1 highcharts-series-1" transform="translate(192.125,3)"><path fill="none" d="M 0 16 L 16 16" class="highcharts-graph" stroke="#0f283e" stroke-width="4"></path><path fill="#0f283e" d="M 12 16 A 4 4 0 1 1 11.999998000000167 15.996000000666664 Z" class="highcharts-point"></path><text x="21" y="20" style="color:#333333;font-size:12px;font-weight:bold;cursor:pointer;fill:#333333;" text-anchor="start"><tspan>Optimistic production scenario</tspan></text></g></g></g></g><g class="highcharts-axis-labels highcharts-xaxis-labels "><text x="101" style="color:#666666;cursor:default;font-size:11px;padding-bottom:18px;line-height:12px;text-align:center;fill:#666666;" text-anchor="middle" transform="translate(0,0)" y="373" opacity="1">2014*</text><text x="161" style="color:#666666;cursor:default;font-size:11px;padding-bottom:18px;line-height:12px;text-align:center;fill:#666666;" text-anchor="middle" transform="translate(0,0)" y="373" opacity="1">2018</text><text x="221" style="color:#666666;cursor:default;font-size:11px;padding-bottom:18px;line-height:12px;text-align:center;fill:#666666;" text-anchor="middle" transform="translate(0,0)" y="373" opacity="1">2022</text><text x="281" style="color:#666666;cursor:default;font-size:11px;padding-bottom:18px;line-height:12px;text-align:center;fill:#666666;" text-anchor="middle" transform="translate(0,0)" y="373" opacity="1">2026</text><text x="341" style="color:#666666;cursor:default;font-size:11px;padding-bottom:18px;line-height:12px;text-align:center;fill:#666666;" text-anchor="middle" transform="translate(0,0)" y="373" opacity="1">2030</text><text x="401" style="color:#666666;cursor:default;font-size:11px;padding-bottom:18px;line-height:12px;text-align:center;fill:#666666;" text-anchor="middle" transform="translate(0,0)" y="373" opacity="1">2034</text><text x="461" style="color:#666666;cursor:default;font-size:11px;padding-bottom:18px;line-height:12px;text-align:center;fill:#666666;" text-anchor="middle" transform="translate(0,0)" y="373" opacity="1">2038</text><text x="521" style="color:#666666;cursor:default;font-size:11px;padding-bottom:18px;line-height:12px;text-align:center;fill:#666666;" text-anchor="middle" transform="translate(0,0)" y="373" opacity="1">2042</text><text x="581" style="color:#666666;cursor:default;font-size:11px;padding-bottom:18px;line-height:12px;text-align:center;fill:#666666;" text-anchor="middle" transform="translate(0,0)" y="373" opacity="1">2044</text><text x="641" style="color:#666666;cursor:default;font-size:11px;padding-bottom:18px;line-height:12px;text-align:center;fill:#666666;" text-anchor="middle" transform="translate(0,0)" y="373" opacity="1">2050</text></g><g class="highcharts-axis-labels highcharts-yaxis-labels "></g><g class="highcharts-label highcharts-tooltip highcharts-color-0" style="cursor:default;pointer-events:none;white-space:nowrap;z-index:9999;" transform="translate(306,-9999)" opacity="0" visibility="visible"><path fill="rgba(255,255,255,.92)" class="highcharts-label-box highcharts-tooltip-box" d="M 2.5 0.5 L 257.5 0.5 C 259.5 0.5 259.5 0.5 259.5 2.5 L 259.5 129.5 C 259.5 131.5 259.5 131.5 257.5 131.5 L 2.5 131.5 C 0.5 131.5 0.5 131.5 0.5 129.5 L 0.5 2.5 C 0.5 0.5 0.5 0.5 2.5 0.5" stroke="#aaaaaa" stroke-width="1"></path></g></svg>