<svg version="1.1" class="highcharts-root" style="font-family:&quot;Lucida Grande&quot;, &quot;Lucida Sans Unicode&quot;, Arial, Helvetica, sans-serif;font-size:12px;" xmlns="http://www.w3.org/2000/svg" width="676" height="450" viewBox="0 0 676 450"><desc>Created with Highcharts 5.0.14</desc><defs><clipPath id="highcharts-si6sqip-1"><rect x="0" y="0" width="583" height="392" fill="none"></rect></clipPath></defs><rect fill="#ffffff" class="highcharts-background" x="0" y="0" width="676" height="450" rx="0" ry="0"></rect><rect fill="none" class="highcharts-plot-background" x="88" y="20" width="583" height="392"></rect><g class="highcharts-plot-bands-0"><path fill="#fafafa" class="highcharts-plot-band " d="M 152.5 20 L 152.5 412 217.5 412 217.5 20" visibility="visible"></path><path fill="#fafafa" class="highcharts-plot-band " d="M 281.5 20 L 281.5 412 346.5 412 346.5 20" visibility="visible"></path><path fill="#fafafa" class="highcharts-plot-band " d="M 411.5 20 L 411.5 412 476.5 412 476.5 20" visibility="visible"></path><path fill="#fafafa" class="highcharts-plot-band " d="M 540.5 20 L 540.5 412 605.5 412 605.5 20" visibility="visible"></path></g><g class="highcharts-grid highcharts-xaxis-grid "><path fill="none" stroke-dasharray="none,none" class="highcharts-grid-line" d="M 152.5 20 L 152.5 412" opacity="1"></path><path fill="none" stroke-dasharray="none,none" class="highcharts-grid-line" d="M 217.5 20 L 217.5 412" opacity="1"></path><path fill="none" stroke-dasharray="none,none" class="highcharts-grid-line" d="M 281.5 20 L 281.5 412" opacity="1"></path><path fill="none" stroke-dasharray="none,none" class="highcharts-grid-line" d="M 346.5 20 L 346.5 412" opacity="1"></path><path fill="none" stroke-dasharray="none,none" class="highcharts-grid-line" d="M 411.5 20 L 411.5 412" opacity="1"></path><path fill="none" stroke-dasharray="none,none" class="highcharts-grid-line" d="M 476.5 20 L 476.5 412" opacity="1"></path><path fill="none" stroke-dasharray="none,none" class="highcharts-grid-line" d="M 540.5 20 L 540.5 412" opacity="1"></path><path fill="none" stroke-dasharray="none,none" class="highcharts-grid-line" d="M 605.5 20 L 605.5 412" opacity="1"></path><path fill="none" stroke-dasharray="none,none" class="highcharts-grid-line" d="M 670.5 20 L 670.5 412" opacity="1"></path><path fill="none" stroke-dasharray="none,none" class="highcharts-grid-line" d="M 87.5 20 L 87.5 412" opacity="1"></path></g><g class="highcharts-grid highcharts-yaxis-grid "><path fill="none" stroke="#cdcdcd" stroke-width="1" stroke-dasharray="1,1" class="highcharts-grid-line" d="M 88 412.5 L 671 412.5" opacity="1"></path><path fill="none" stroke="#cdcdcd" stroke-width="1" stroke-dasharray="1,1" class="highcharts-grid-line" d="M 88 356.5 L 671 356.5" opacity="1"></path><path fill="none" stroke="#cdcdcd" stroke-width="1" stroke-dasharray="1,1" class="highcharts-grid-line" d="M 88 300.5 L 671 300.5" opacity="1"></path><path fill="none" stroke="#cdcdcd" stroke-width="1" stroke-dasharray="1,1" class="highcharts-grid-line" d="M 88 244.5 L 671 244.5" opacity="1"></path><path fill="none" stroke="#cdcdcd" stroke-width="1" stroke-dasharray="1,1" class="highcharts-grid-line" d="M 88 188.5 L 671 188.5" opacity="1"></path><path fill="none" stroke="#cdcdcd" stroke-width="1" stroke-dasharray="1,1" class="highcharts-grid-line" d="M 88 132.5 L 671 132.5" opacity="1"></path><path fill="none" stroke="#cdcdcd" stroke-width="1" stroke-dasharray="1,1" class="highcharts-grid-line" d="M 88 76.5 L 671 76.5" opacity="1"></path><path fill="none" stroke="#cdcdcd" stroke-width="1" stroke-dasharray="1,1" class="highcharts-grid-line" d="M 88 19.5 L 671 19.5" opacity="1"></path></g><rect fill="none" class="highcharts-plot-border" x="88" y="20" width="583" height="392"></rect><g class="highcharts-axis highcharts-xaxis "><path fill="none" class="highcharts-axis-line" d="M 88 412 L 671 412"></path></g><g class="highcharts-axis highcharts-yaxis "><text x="24" text-anchor="middle" transform="translate(0,0) rotate(270 24 216)" class="highcharts-axis-title" style="color:#808080;font-size:10px;font-weight:normal;fill:#808080;" y="216"><tspan>Price per carat in U.S. dollars</tspan></text><path fill="none" class="highcharts-axis-line" d="M 88 20 L 88 412"></path></g><g class="highcharts-series-group"><g class="highcharts-series highcharts-series-0 highcharts-column-series highcharts-color-0 highcharts-tracker " transform="translate(88,20) scale(1 1)" style="cursor:pointer;" clip-path="url(#highcharts-si6sqip-1)"><rect x="10" y="363" width="45" height="30" fill="#2876dd" class="highcharts-point highcharts-color-0 "></rect><rect x="75" y="316" width="45" height="77" fill="#2876dd" class="highcharts-point highcharts-color-0 "></rect><rect x="140" y="275" width="45" height="118" fill="#2876dd" class="highcharts-point highcharts-color-0 "></rect><rect x="205" y="237" width="45" height="156" fill="#2876dd" class="highcharts-point highcharts-color-0 "></rect><rect x="269" y="224" width="45" height="169" fill="#2876dd" class="highcharts-point highcharts-color-0 "></rect><rect x="334" y="119" width="45" height="274" fill="#2876dd" class="highcharts-point highcharts-color-0 "></rect><rect x="399" y="75" width="45" height="318" fill="#2876dd" class="highcharts-point highcharts-color-0 "></rect><rect x="464" y="61" width="45" height="332" fill="#2876dd" class="highcharts-point highcharts-color-0 "></rect><rect x="528" y="47" width="45" height="346" fill="#2876dd" class="highcharts-point highcharts-color-0 "></rect></g><g class="highcharts-markers highcharts-series-0 highcharts-column-series highcharts-color-0 " transform="translate(88,20) scale(1 1)" clip-path="none"></g></g><g class="highcharts-data-labels highcharts-series-0 highcharts-column-series highcharts-color-0 highcharts-tracker " transform="translate(88,20) scale(1 1)" opacity="1" style="cursor:pointer;" visibility="visible"><g class="highcharts-label highcharts-data-label highcharts-data-label-color-0 " transform="translate(12,339)" style="text-shadow:null;cursor:pointer;"><text x="5" style="font-size:11px;font-weight:bold;color:#4f4f4f;fill:#4f4f4f;" y="16"><tspan x="5" y="16" class="highcharts-text-outline" fill="#FFFFFF" stroke="#FFFFFF" stroke-width="2px" stroke-linejoin="round">2 700</tspan><tspan x="5" y="16">2 700</tspan></text></g><g class="highcharts-label highcharts-data-label highcharts-data-label-color-0 " transform="translate(77,292)" style="text-shadow:null;cursor:pointer;"><text x="5" style="font-size:11px;font-weight:bold;color:#4f4f4f;fill:#4f4f4f;" y="16"><tspan x="5" y="16" class="highcharts-text-outline" fill="#FFFFFF" stroke="#FFFFFF" stroke-width="2px" stroke-linejoin="round">6 900</tspan><tspan x="5" y="16">6 900</tspan></text></g><g class="highcharts-label highcharts-data-label highcharts-data-label-color-0 " transform="translate(139,251)" style="text-shadow:null;cursor:pointer;"><text x="5" style="font-size:11px;font-weight:bold;color:#4f4f4f;fill:#4f4f4f;" y="16"><tspan x="5" y="16" class="highcharts-text-outline" fill="#FFFFFF" stroke="#FFFFFF" stroke-width="2px" stroke-linejoin="round">10 500</tspan><tspan x="5" y="16">10 500</tspan></text></g><g class="highcharts-label highcharts-data-label highcharts-data-label-color-0 " transform="translate(204,213)" style="text-shadow:null;cursor:pointer;"><text x="5" style="font-size:11px;font-weight:bold;color:#4f4f4f;fill:#4f4f4f;" y="16"><tspan x="5" y="16" class="highcharts-text-outline" fill="#FFFFFF" stroke="#FFFFFF" stroke-width="2px" stroke-linejoin="round">13 900</tspan><tspan x="5" y="16">13 900</tspan></text></g><g class="highcharts-label highcharts-data-label highcharts-data-label-color-0 " transform="translate(268,200)" style="text-shadow:null;cursor:pointer;"><text x="5" style="font-size:11px;font-weight:bold;color:#4f4f4f;fill:#4f4f4f;" y="16"><tspan x="5" y="16" class="highcharts-text-outline" fill="#FFFFFF" stroke="#FFFFFF" stroke-width="2px" stroke-linejoin="round">15 100</tspan><tspan x="5" y="16">15 100</tspan></text></g><g class="highcharts-label highcharts-data-label highcharts-data-label-color-0 " transform="translate(333,95)" style="text-shadow:null;cursor:pointer;"><text x="5" style="font-size:11px;font-weight:bold;color:#4f4f4f;fill:#4f4f4f;" y="16"><tspan x="5" y="16" class="highcharts-text-outline" fill="#FFFFFF" stroke="#FFFFFF" stroke-width="2px" stroke-linejoin="round">24 500</tspan><tspan x="5" y="16">24 500</tspan></text></g><g class="highcharts-label highcharts-data-label highcharts-data-label-color-0 " transform="translate(398,51)" style="text-shadow:null;cursor:pointer;"><text x="5" style="font-size:11px;font-weight:bold;color:#4f4f4f;fill:#4f4f4f;" y="16"><tspan x="5" y="16" class="highcharts-text-outline" fill="#FFFFFF" stroke="#FFFFFF" stroke-width="2px" stroke-linejoin="round">28 400</tspan><tspan x="5" y="16">28 400</tspan></text></g><g class="highcharts-label highcharts-data-label highcharts-data-label-color-0 " transform="translate(463,37)" style="text-shadow:null;cursor:pointer;"><text x="5" style="font-size:11px;font-weight:bold;color:#4f4f4f;fill:#4f4f4f;" y="16"><tspan x="5" y="16" class="highcharts-text-outline" fill="#FFFFFF" stroke="#FFFFFF" stroke-width="2px" stroke-linejoin="round">29 650</tspan><tspan x="5" y="16">29 650</tspan></text></g><g class="highcharts-label highcharts-data-label highcharts-data-label-color-0 " transform="translate(527,23)" style="text-shadow:null;cursor:pointer;"><text x="5" style="font-size:11px;font-weight:bold;color:#4f4f4f;fill:#4f4f4f;" y="16"><tspan x="5" y="16" class="highcharts-text-outline" fill="#FFFFFF" stroke="#FFFFFF" stroke-width="2px" stroke-linejoin="round">30 925</tspan><tspan x="5" y="16">30 925</tspan></text></g></g><g class="highcharts-plot-lines-6"><path fill="none" stroke="#121212" stroke-width="1" d="M 88 412.5 L 671 412.5" visibility="visible"></path></g><g class="highcharts-axis-labels highcharts-xaxis-labels "><text x="120.38888888888889" style="color:#666666;cursor:default;font-size:11px;padding-bottom:18px;line-height:12px;text-align:center;fill:#666666;" text-anchor="middle" transform="translate(0,0)" y="432" opacity="1">1960</text><text x="185.16666666666666" style="color:#666666;cursor:default;font-size:11px;padding-bottom:18px;line-height:12px;text-align:center;fill:#666666;" text-anchor="middle" transform="translate(0,0)" y="432" opacity="1">1970</text><text x="249.94444444444443" style="color:#666666;cursor:default;font-size:11px;padding-bottom:18px;line-height:12px;text-align:center;fill:#666666;" text-anchor="middle" transform="translate(0,0)" y="432" opacity="1">1980</text><text x="314.7222222222222" style="color:#666666;cursor:default;font-size:11px;padding-bottom:18px;line-height:12px;text-align:center;fill:#666666;" text-anchor="middle" transform="translate(0,0)" y="432" opacity="1">1990</text><text x="379.5" style="color:#666666;cursor:default;font-size:11px;padding-bottom:18px;line-height:12px;text-align:center;fill:#666666;" text-anchor="middle" transform="translate(0,0)" y="432" opacity="1">2000</text><text x="444.2777777777777" style="color:#666666;cursor:default;font-size:11px;padding-bottom:18px;line-height:12px;text-align:center;fill:#666666;" text-anchor="middle" transform="translate(0,0)" y="432" opacity="1">2010</text><text x="509.05555555555554" style="color:#666666;cursor:default;font-size:11px;padding-bottom:18px;line-height:12px;text-align:center;fill:#666666;" text-anchor="middle" transform="translate(0,0)" y="432" opacity="1">2013</text><text x="573.8333333333333" style="color:#666666;cursor:default;font-size:11px;padding-bottom:18px;line-height:12px;text-align:center;fill:#666666;" text-anchor="middle" transform="translate(0,0)" y="432" opacity="1">2015</text><text x="638.6111111111111" style="color:#666666;cursor:default;font-size:11px;padding-bottom:18px;line-height:12px;text-align:center;fill:#666666;" text-anchor="middle" transform="translate(0,0)" y="432" opacity="1">2016*</text></g><g class="highcharts-axis-labels highcharts-yaxis-labels "></g><g class="highcharts-label highcharts-tooltip highcharts-color-0" style="cursor:default;pointer-events:none;white-space:nowrap;z-index:9999;" transform="translate(393,-9999)" opacity="0" visibility="visible"><path fill="rgba(255,255,255,.92)" class="highcharts-label-box highcharts-tooltip-box" d="M 2.5 0.5 L 174.5 0.5 C 176.5 0.5 176.5 0.5 176.5 2.5 L 176.5 97.5 C 176.5 99.5 176.5 99.5 174.5 99.5 L 2.5 99.5 C 0.5 99.5 0.5 99.5 0.5 97.5 L 0.5 2.5 C 0.5 0.5 0.5 0.5 2.5 0.5" stroke="#aaaaaa" stroke-width="1"></path></g></svg>